#tb 0: 1/4
#media_type 0: video
#codec_id 0: rawvideo
#dimensions 0: 300x180
#sar 0: 0/1
0,          0,          0,        1,   135000, 0x9dceed6d
0,          1,          1,        1,   135000, 0x1fc377a4
0,          2,          2,        1,   135000, 0x0b4465d4
0,          3,          3,        1,   135000, 0x136b8062
0,          4,          4,        1,   135000, 0x4691a55c
0,          5,          5,        1,   135000, 0x55bb8a19
0,          6,          6,        1,   135000, 0xdbf67651
0,          7,          7,        1,   135000, 0x6fb19113
0,          8,          8,        1,   135000, 0x3edc9227
0,          9,          9,        1,   135000, 0x53b39aff
0,         10,         10,        1,   135000, 0x699e94b0
0,         11,         11,        1,   135000, 0xeedd9388
0,         12,         12,        1,   135000, 0x14055f96
0,         13,         13,        1,   135000, 0x71fbb5fd
0,         14,         14,        1,   135000, 0x6fb4e491
0,         15,         15,        1,   135000, 0x35ca3482
0,         16,         16,        1,   135000, 0x0c2a7530
0,         17,         17,        1,   135000, 0x422c5581
0,         18,         18,        1,   135000, 0x19eb2155
0,         19,         19,        1,   135000, 0x07e1b114
0,         20,         20,        1,   135000, 0xa10f3f81
0,         21,         21,        1,   135000, 0x75684dcd
0,         22,         22,        1,   135000, 0x1721c337
0,         23,         23,        1,   135000, 0x3897667d
0,         24,         24,        1,   135000, 0x1232769e
0,         25,         25,        1,   135000, 0xec975059
0,         26,         26,        1,   135000, 0xb2a46123
0,         27,         27,        1,   135000, 0x052c5f72
0,         28,         28,        1,   135000, 0x3087eb2f
0,         29,         29,        1,   135000, 0xd1e0373a
0,         30,         30,        1,   135000, 0x64dab704
0,         31,         31,        1,   135000, 0xa44dd89e
0,         32,         32,        1,   135000, 0x380ecae9
0,         33,         33,        1,   135000, 0x8c6fc4ab
0,         34,         34,        1,   135000, 0x02096903
0,         35,         35,        1,   135000, 0x11edf432
0,         36,         36,        1,   135000, 0x3585ee5f
0,         37,         37,        1,   135000, 0xe1338c40
0,         38,         38,        1,   135000, 0x5edfbd0c
0,         39,         39,        1,   135000, 0x9420965c
0,         40,         40,        1,   135000, 0x0caceb17
0,         41,         41,        1,   135000, 0x3fdc36c3
0,         42,         42,        1,   135000, 0x8a24df14
0,         43,         43,        1,   135000, 0x5dc057b0
0,         44,         44,        1,   135000, 0xdc5eda65
0,         45,         45,        1,   135000, 0x60433612
0,         46,         46,        1,   135000, 0x6a91d6c9
0,         47,         47,        1,   135000, 0x53598734
0,         48,         48,        1,   135000, 0xb1569ce9
0,         49,         49,        1,   135000, 0xf5e83a33
0,         50,         50,        1,   135000, 0xebe18275
0,         51,         51,        1,   135000, 0x98af9447
0,         52,         52,        1,   135000, 0x3f03b765
0,         53,         53,        1,   135000, 0x7423e0b8
0,         54,         54,        1,   135000, 0x6c1b5faa
0,         55,         55,        1,   135000, 0xebf98d52
0,         56,         56,        1,   135000, 0xf3dfb8b6
0,         57,         57,        1,   135000, 0x85a9634a
0,         58,         58,        1,   135000, 0x4d425bb5
0,         59,         59,        1,   135000, 0xfb7945ee
0,         60,         60,        1,   135000, 0x593534c1
0,         61,         61,        1,   135000, 0xe3fa2517
0,         62,         62,        1,   135000, 0x893629e3
0,         63,         63,        1,   135000, 0xdc3ca6ad
0,         64,         64,        1,   135000, 0x16b1ce27
0,         65,         65,        1,   135000, 0x8296f478
0,         66,         66,        1,   135000, 0x9e9baaa3
0,         67,         67,        1,   135000, 0x994ecd4a
0,         68,         68,        1,   135000, 0x40f83b3c
0,         69,         69,        1,   135000, 0x0de38f90
0,         70,         70,        1,   135000, 0x5455ea6c
0,         71,         71,        1,   135000, 0x053e41e8
0,         72,         72,        1,   135000, 0x0fee1281
0,         73,         73,        1,   135000, 0xa0c9a434
0,         74,         74,        1,   135000, 0x8e4c19aa
0,         75,         75,        1,   135000, 0x34bebc00
0,         76,         76,        1,   135000, 0x6670ad6f
0,         77,         77,        1,   135000, 0xdbba63fc
0,         78,         78,        1,   135000, 0xe34fb839
0,         79,         79,        1,   135000, 0xa3ce7eb1
0,         80,         80,        1,   135000, 0xdec7ed7d
0,         81,         81,        1,   135000, 0xdb7041bf
0,         82,         82,        1,   135000, 0x2b1d1dc1
0,         83,         83,        1,   135000, 0xaaa384c1
0,         84,         84,        1,   135000, 0x37f42217
0,         85,         85,        1,   135000, 0x928ba4da
0,         86,         86,        1,   135000, 0x2b681f41
0,         87,         87,        1,   135000, 0xcbe1ff84
0,         88,         88,        1,   135000, 0x47949f24
0,         89,         89,        1,   135000, 0x368b7fe5
0,         90,         90,        1,   135000, 0x1cf4773b
0,         91,         91,        1,   135000, 0x14c33a35
0,         92,         92,        1,   135000, 0xdc08470e
